<svg width="16" height="27" viewBox="0 0 16 27" fill="none" xmlns="http://www.w3.org/2000/svg">
<path fill-rule="evenodd" clip-rule="evenodd" d="M1.29159 1.29116C1.38448 1.19804 1.49483 1.12415 1.61632 1.07374C1.73781 1.02333 1.86806 0.997375 1.99959 0.997375C2.13112 0.997375 2.26137 1.02333 2.38286 1.07374C2.50435 1.12415 2.6147 1.19804 2.70759 1.29116L14.7076 13.2912C14.8007 13.3841 14.8746 13.4944 14.925 13.6159C14.9754 13.7374 15.0014 13.8676 15.0014 13.9992C15.0014 14.1307 14.9754 14.2609 14.925 14.3824C14.8746 14.5039 14.8007 14.6143 14.7076 14.7072L2.70759 26.7072C2.51982 26.8949 2.26514 27.0004 1.99959 27.0004C1.73404 27.0004 1.47936 26.8949 1.29159 26.7072C1.10382 26.5194 0.998326 26.2647 0.998326 25.9992C0.998326 25.7336 1.10382 25.4789 1.29159 25.2912L12.5856 13.9992L1.29159 2.70716C1.19846 2.61427 1.12458 2.50392 1.07416 2.38243C1.02375 2.26094 0.997803 2.1307 0.997803 1.99916C0.997803 1.86763 1.02375 1.73739 1.07416 1.6159C1.12458 1.49441 1.19846 1.38405 1.29159 1.29116Z" fill="white"/>
</svg>
