<svg width="18" height="10" viewBox="0 0 18 10" fill="none" xmlns="http://www.w3.org/2000/svg">
<path fill-rule="evenodd" clip-rule="evenodd" d="M1.05715 0.806664C1.11521 0.74846 1.18418 0.702281 1.26011 0.670773C1.33604 0.639265 1.41744 0.623047 1.49965 0.623047C1.58186 0.623047 1.66326 0.639265 1.73919 0.670773C1.81513 0.702281 1.8841 0.74846 1.94215 0.806664L8.99965 7.86541L16.0572 0.806664C16.1153 0.748554 16.1842 0.702458 16.2602 0.67101C16.3361 0.639561 16.4175 0.623374 16.4997 0.623374C16.5818 0.623374 16.6632 0.639561 16.7391 0.67101C16.8151 0.702458 16.884 0.748554 16.9422 0.806664C17.0003 0.864774 17.0464 0.93376 17.0778 1.00968C17.1093 1.08561 17.1254 1.16698 17.1254 1.24916C17.1254 1.33134 17.1093 1.41272 17.0778 1.48864C17.0464 1.56457 17.0003 1.63355 16.9422 1.69166L9.44215 9.19166C9.3841 9.24987 9.31513 9.29605 9.23919 9.32755C9.16326 9.35906 9.08186 9.37528 8.99965 9.37528C8.91744 9.37528 8.83604 9.35906 8.76011 9.32755C8.68418 9.29605 8.61521 9.24987 8.55715 9.19166L1.05715 1.69166C0.998948 1.63361 0.95277 1.56464 0.921262 1.48871C0.889754 1.41277 0.873535 1.33137 0.873535 1.24916C0.873535 1.16695 0.889754 1.08555 0.921262 1.00962C0.95277 0.93369 0.998948 0.864721 1.05715 0.806664Z" fill="#212529"/>
</svg>
