<svg width="16" height="27" viewBox="0 0 16 27" fill="none" xmlns="http://www.w3.org/2000/svg">
<path fill-rule="evenodd" clip-rule="evenodd" d="M14.7077 1.29116C14.8008 1.38405 14.8747 1.49441 14.9251 1.6159C14.9755 1.73739 15.0014 1.86763 15.0014 1.99916C15.0014 2.1307 14.9755 2.26094 14.9251 2.38243C14.8747 2.50392 14.8008 2.61427 14.7077 2.70716L3.41365 13.9992L14.7077 25.2912C14.8954 25.4789 15.0009 25.7336 15.0009 25.9992C15.0009 26.2647 14.8954 26.5194 14.7077 26.7072C14.5199 26.8949 14.2652 27.0004 13.9997 27.0004C13.7341 27.0004 13.4794 26.8949 13.2917 26.7072L1.29165 14.7072C1.19852 14.6143 1.12464 14.5039 1.07423 14.3824C1.02381 14.2609 0.997864 14.1307 0.997864 13.9992C0.997864 13.8676 1.02381 13.7374 1.07423 13.6159C1.12464 13.4944 1.19852 13.3841 1.29165 13.2912L13.2917 1.29116C13.3845 1.19804 13.4949 1.12415 13.6164 1.07374C13.7379 1.02333 13.8681 0.997375 13.9997 0.997375C14.1312 0.997375 14.2614 1.02333 14.3829 1.07374C14.5044 1.12415 14.6148 1.19804 14.7077 1.29116Z" fill="white"/>
</svg>
