<svg width="5" height="14" viewBox="0 0 5 14" fill="none" xmlns="http://www.w3.org/2000/svg">
<path d="M1.99963 0.999207C1.99963 1.26442 1.89428 1.51878 1.70674 1.70631C1.5192 1.89385 1.26485 1.99921 0.999634 1.99921C0.734417 1.99921 0.480064 1.89385 0.292527 1.70631C0.104991 1.51878 -0.000366211 1.26442 -0.000366211 0.999207C-0.000366211 0.73399 0.104991 0.479636 0.292527 0.2921C0.480064 0.104563 0.734417 -0.000793457 0.999634 -0.000793457C1.26485 -0.000793457 1.5192 0.104563 1.70674 0.2921C1.89428 0.479636 1.99963 0.73399 1.99963 0.999207ZM4.99963 0.999207C4.99963 1.26442 4.89428 1.51878 4.70674 1.70631C4.5192 1.89385 4.26485 1.99921 3.99963 1.99921C3.73442 1.99921 3.48006 1.89385 3.29253 1.70631C3.10499 1.51878 2.99963 1.26442 2.99963 0.999207C2.99963 0.73399 3.10499 0.479636 3.29253 0.2921C3.48006 0.104563 3.73442 -0.000793457 3.99963 -0.000793457C4.26485 -0.000793457 4.5192 0.104563 4.70674 0.2921C4.89428 0.479636 4.99963 0.73399 4.99963 0.999207ZM1.99963 3.99921C1.99963 4.26442 1.89428 4.51878 1.70674 4.70631C1.5192 4.89385 1.26485 4.99921 0.999634 4.99921C0.734417 4.99921 0.480064 4.89385 0.292527 4.70631C0.104991 4.51878 -0.000366211 4.26442 -0.000366211 3.99921C-0.000366211 3.73399 0.104991 3.47964 0.292527 3.2921C0.480064 3.10456 0.734417 2.99921 0.999634 2.99921C1.26485 2.99921 1.5192 3.10456 1.70674 3.2921C1.89428 3.47964 1.99963 3.73399 1.99963 3.99921ZM4.99963 3.99921C4.99963 4.26442 4.89428 4.51878 4.70674 4.70631C4.5192 4.89385 4.26485 4.99921 3.99963 4.99921C3.73442 4.99921 3.48006 4.89385 3.29253 4.70631C3.10499 4.51878 2.99963 4.26442 2.99963 3.99921C2.99963 3.73399 3.10499 3.47964 3.29253 3.2921C3.48006 3.10456 3.73442 2.99921 3.99963 2.99921C4.26485 2.99921 4.5192 3.10456 4.70674 3.2921C4.89428 3.47964 4.99963 3.73399 4.99963 3.99921ZM1.99963 6.99921C1.99963 7.26442 1.89428 7.51878 1.70674 7.70631C1.5192 7.89385 1.26485 7.99921 0.999634 7.99921C0.734417 7.99921 0.480064 7.89385 0.292527 7.70631C0.104991 7.51878 -0.000366211 7.26442 -0.000366211 6.99921C-0.000366211 6.73399 0.104991 6.47964 0.292527 6.2921C0.480064 6.10456 0.734417 5.99921 0.999634 5.99921C1.26485 5.99921 1.5192 6.10456 1.70674 6.2921C1.89428 6.47964 1.99963 6.73399 1.99963 6.99921ZM4.99963 6.99921C4.99963 7.26442 4.89428 7.51878 4.70674 7.70631C4.5192 7.89385 4.26485 7.99921 3.99963 7.99921C3.73442 7.99921 3.48006 7.89385 3.29253 7.70631C3.10499 7.51878 2.99963 7.26442 2.99963 6.99921C2.99963 6.73399 3.10499 6.47964 3.29253 6.2921C3.48006 6.10456 3.73442 5.99921 3.99963 5.99921C4.26485 5.99921 4.5192 6.10456 4.70674 6.2921C4.89428 6.47964 4.99963 6.73399 4.99963 6.99921ZM1.99963 9.99921C1.99963 10.2644 1.89428 10.5188 1.70674 10.7063C1.5192 10.8938 1.26485 10.9992 0.999634 10.9992C0.734417 10.9992 0.480064 10.8938 0.292527 10.7063C0.104991 10.5188 -0.000366211 10.2644 -0.000366211 9.99921C-0.000366211 9.73399 0.104991 9.47964 0.292527 9.2921C0.480064 9.10456 0.734417 8.99921 0.999634 8.99921C1.26485 8.99921 1.5192 9.10456 1.70674 9.2921C1.89428 9.47964 1.99963 9.73399 1.99963 9.99921ZM4.99963 9.99921C4.99963 10.2644 4.89428 10.5188 4.70674 10.7063C4.5192 10.8938 4.26485 10.9992 3.99963 10.9992C3.73442 10.9992 3.48006 10.8938 3.29253 10.7063C3.10499 10.5188 2.99963 10.2644 2.99963 9.99921C2.99963 9.73399 3.10499 9.47964 3.29253 9.2921C3.48006 9.10456 3.73442 8.99921 3.99963 8.99921C4.26485 8.99921 4.5192 9.10456 4.70674 9.2921C4.89428 9.47964 4.99963 9.73399 4.99963 9.99921ZM1.99963 12.9992C1.99963 13.2644 1.89428 13.5188 1.70674 13.7063C1.5192 13.8938 1.26485 13.9992 0.999634 13.9992C0.734417 13.9992 0.480064 13.8938 0.292527 13.7063C0.104991 13.5188 -0.000366211 13.2644 -0.000366211 12.9992C-0.000366211 12.734 0.104991 12.4796 0.292527 12.2921C0.480064 12.1046 0.734417 11.9992 0.999634 11.9992C1.26485 11.9992 1.5192 12.1046 1.70674 12.2921C1.89428 12.4796 1.99963 12.734 1.99963 12.9992ZM4.99963 12.9992C4.99963 13.2644 4.89428 13.5188 4.70674 13.7063C4.5192 13.8938 4.26485 13.9992 3.99963 13.9992C3.73442 13.9992 3.48006 13.8938 3.29253 13.7063C3.10499 13.5188 2.99963 13.2644 2.99963 12.9992C2.99963 12.734 3.10499 12.4796 3.29253 12.2921C3.48006 12.1046 3.73442 11.9992 3.99963 11.9992C4.26485 11.9992 4.5192 12.1046 4.70674 12.2921C4.89428 12.4796 4.99963 12.734 4.99963 12.9992Z" fill="#6C757D"/>
</svg>
